HIERARCHY
ROOT HipCenter
{
    OFFSET 0.0 0.0 -0.0
    CHANNELS 6 Xposition Yposition Zposition Zrotation Xrotation Yrotation
    JOINT Spine
    {
        OFFSET 0.0 11.616289138793945 0.0
        CHANNELS 3 Zrotation Xrotation Yrotation
        JOINT ShoulderCenter
        {
            OFFSET 0.0 32.14043045043945 0.0
            CHANNELS 3 Zrotation Xrotation Yrotation
            JOINT LeftShoulder
            {
                OFFSET 20.30788230895996 0.0 0.0
                CHANNELS 3 Zrotation Xrotation Yrotation
                JOINT LeftElbow
                {
                    OFFSET 27.910465240478516 0.0 0.0
                    CHANNELS 3 Zrotation Xrotation Yrotation
                    JOINT LeftWrist
                    {
                        OFFSET 28.445663452148438 0.0 0.0
                        CHANNELS 3 Zrotation Xrotation Yrotation
                        JOINT LeftHand
                        {
                            OFFSET 3.929109573364258 0.0 0.0
                            CHANNELS 3 Zrotation Xrotation Yrotation
                            End Site
                            {
                                OFFSET 1.5716438293457031 0.0 0.0
                            }
                        }
                    }
                }
            }
            JOINT RightShoulder
            {
                OFFSET -20.30788230895996 0.0 0.0
                CHANNELS 3 Zrotation Xrotation Yrotation
                JOINT RightElbow
                {
                    OFFSET -27.910465240478516 0.0 0.0
                    CHANNELS 3 Zrotation Xrotation Yrotation
                    JOINT RightWrist
                    {
                        OFFSET -28.445663452148438 0.0 0.0
                        CHANNELS 3 Zrotation Xrotation Yrotation
                        JOINT RightHand
                        {
                            OFFSET -3.929109573364258 0.0 0.0
                            CHANNELS 3 Zrotation Xrotation Yrotation
                            End Site
                            {
                                OFFSET -1.5716438293457031 0.0 0.0
                            }
                        }
                    }
                }
            }
            End Site
            {
                OFFSET 0.0 12.856170654296875 0.0
            }
        }
    }
    JOINT LeftHip
    {
        OFFSET 14.176698684692383 0.0 0.0
        CHANNELS 3 Zrotation Xrotation Yrotation
        JOINT LeftKnee
        {
            OFFSET 0.0 -42.84436798095703 0.0
            CHANNELS 3 Zrotation Xrotation Yrotation
            JOINT LeftAnkle
            {
                OFFSET 0.0 -40.93027877807617 0.0
                CHANNELS 3 Zrotation Xrotation Yrotation
                JOINT LeftFoot
                {
                    OFFSET 0.0 -12.580310821533203 0.0
                    CHANNELS 3 Zrotation Xrotation Yrotation
                    End Site
                    {
                        OFFSET 0.0 0.0 5.0321245193481445
                    }
                }
            }
        }
    }
    JOINT RightHip
    {
        OFFSET -14.176698684692383 0.0 0.0
        CHANNELS 3 Zrotation Xrotation Yrotation
        JOINT RightKnee
        {
            OFFSET 0.0 -42.84436798095703 0.0
            CHANNELS 3 Zrotation Xrotation Yrotation
            JOINT RightAnkle
            {
                OFFSET 0.0 -40.93027877807617 0.0
                CHANNELS 3 Zrotation Xrotation Yrotation
                JOINT RightFoot
                {
                    OFFSET 0.0 -12.580310821533203 0.0
                    CHANNELS 3 Zrotation Xrotation Yrotation
                    End Site
                    {
                        OFFSET 0.0 0.0 5.0321245193481445
                    }
                }
            }
        }
    }
}
MOTION
Frames: 8
Frame Time: 0.03333333333333333
48.89999771118164 2.4000000953674316 -9.899999618530273 1.0587768437495215e-09 3.4533149627998383 0.49837687518305623 0.5324818268455864 -0.24845950942368095 -0.01108213362070009 -9.84638534407663e-08 -3.7926647481257676e-07 -14.158981710982149 105.67909144978033 -23.446891467013767 178.7496694599404 7.159913850562665e-07 -3.0941651433316048e-06 116.26405128511541 -2.7101370069079836e-06 -88.61492947273732 32.55620683257463 -1.5902773407317584e-15 -3.1805546814635168e-15 -3.975693351829396e-15 -90.94633728294778 -8.397267625531917 -129.06702622906738 2.152664429552038e-06 1.985867211157718e-06 -78.95255618342632 6.552384574535751e-06 -27.598322689032102 -59.14603582081867 -6.361109362927035e-15 -1.7655625192200634e-31 3.1805546814635176e-15 -6.3851513931082975 14.987421664899067 -27.783540486096598 -13.092336368151926 26.371014897835554 -7.873994287296426 50.64763923806645 -41.00428632139561 55.95806814098392 3.975693351829396e-16 1.5902773407317584e-15 -1.4908850069360235e-16 9.19653354347801 -38.36633276248208 -15.294491796697947 -29.468422402941165 42.130567088035754 63.312270499166694 -94.44913454092803 -55.38632673534912 -144.51122105995952 -6.361109362927035e-15 4.770832022195277e-15 2.648343778830095e-31
49.0 2.8999998569488525 -0.4000000059604645 0.9877641562831383 2.4677515921779714 1.0504989456798735 0.2689913019723362 0.21051262768173593 0.008939249261289079 -1.7944848365779357e-08 6.129167501700419e-08 -14.64710799668532 102.33261311658266 -25.802188702758162 173.4231243169287 -1.642847591190646e-06 3.2602948274400585e-06 115.65883067223503 179.99997036386313 -88.76269053896465 -147.67994639817238 -7.951386703658792e-16 1.7241821476758433e-32 -2.4848083448933726e-15 -90.3832936668813 -7.130357426559307 -130.17624799936868 3.9196820764128885e-07 -9.59134348382772e-07 -81.50425833775653 2.7999490267750117e-06 -30.272217399844813 -59.13224128998539 -9.54166404439055e-15 -2.648343778830095e-31 3.1805546814635168e-15 -6.521132881357508 14.236429034980192 -27.37334719269945 -19.7647020912375 34.193047049011646 -6.565082947603988 60.43789968064036 -36.40371662412953 58.465768493631515 7.951386703658791e-16 -1.5405811738338907e-15 -1.4908850069360232e-16 6.632783671951474 -33.171140567243796 -12.625821358852395 -17.514673988013794 33.12951052871639 46.00969282522605 -98.71431147213015 -63.84884748581575 -149.28685836825065 -6.3611093629270335e-15 4.770832022195275e-15 3.1805546814635168e-15
48.89999771118164 2.0 8.699999809265137 1.4814533566275778 2.467294006036164 1.0420742125584044 0.12493480391993099 0.0267624856260907 0.0011178425151674425 1.1416677769393588e-07 3.1112134264308e-08 -13.152919418512123 97.69034444454616 -28.127015618070804 167.05549653507632 -3.670862880742278e-06 2.2695129215498144e-06 114.2146453494627 179.99997313104595 -87.68175789916259 -146.53565513026695 1.8966003624434275e-32 -7.951386703658791e-16 2.7332891793827093e-15 -89.10133562703884 -6.343456319889399 -133.01618631612638 -1.799356909426206e-06 4.91153339418464e-06 -83.62766285317002 2.7290258473995767e-06 -31.04418037725274 -59.47709031942403 3.1805546814635164e-15 1.5902773407317582e-15 -4.4139062980501586e-32 -5.2186363832601 10.15441219869035 -26.809940143983606 -31.455834346564764 43.46957268880469 -1.3661281608590068 67.6547923561127 -31.692344992961857 53.98156150553676 1.5902773407317582e-15 -1.987846675914698e-16 -1.4411888400381559e-15 5.77474568862434 -29.93911930252544 -8.034224104616104 -11.63436205939162 29.797049343106366 38.33090229650985 -103.16416516392526 -62.25744715256377 -153.35231408248532 0.0 6.361109362927035e-15 0.0
48.79999923706055 -0.10000000149011612 17.600000381469727 0.9877641741227989 1.974638883503247 1.3273856558835775 1.3572491414671923 0.8547413860672382 0.015386227848573159 -1.0113213987828863e-07 -4.388238195928639e-08 -12.060857037736023 93.25278585390927 -28.081652013442888 160.89905766340846 1.8826106288902363e-06 2.1175614437555608e-08 111.09291396751621 179.99998909007593 -89.11688881458613 -145.7768939129672 1.987846675914698e-16 3.975693351829396e-16 -1.3480085271046545e-15 -88.77166727370728 -7.002746431111534 -139.02041965839103 9.054397630484409e-07 -2.660641200899087e-06 -85.02681289609846 2.477440093269297e-06 -28.227063810942138 -59.54468343530326 -6.361109362927035e-15 -3.1805546814635176e-15 -1.7655625192200634e-31 -2.3680306918013927 3.9781078826796343 -24.179187771867824 -49.065965360876554 54.47515197188257 8.595979721078194 72.28208697657342 -28.2442263717048 47.003615735196426 -1.5902773407317584e-15 3.975693351829396e-16 1.4908850069360234e-15 6.2730861064336985 -26.24606585635599 -3.6114254151740433 -8.946067365939223 30.37042030036591 36.27308204107585 -101.89159077419683 -57.64475100298055 -151.40431154529682 3.180554681463516e-15 -6.361109362927032e-15 1.7655625192200634e-31
48.79999923706055 -2.8999998569488525 26.19999885559082 1.481453491486344 2.959959792163265 -0.5855226614240563 1.007734009528388 0.6126753662945771 -0.002987074022553479 -1.2805854142429378e-07 -3.8988224291952216e-08 -8.073942265381154 91.90961740016134 -27.18638651380583 155.2872885110691 -2.6146979596329463e-06 5.836152068685705e-07 106.90579931439329 179.9999692980461 -88.97142682039365 -148.13798928909935 -5.963540027744094e-16 -1.9878466759146985e-16 5.715059193254757e-15 -89.9049644879459 -9.716665891840167 -148.91381878667073 2.9510428267070797e-06 1.4946714105092482e-06 -86.58122062946721 -4.647097372349432e-07 -27.2464289685626 -59.266880058205125 0.0 6.3611093629270335e-15 0.0 0.17582117668961258 -4.964838362601958 -20.039057794208397 -76.36842674145399 61.991216707845965 28.215806673632876 74.43073843164287 -25.68574422426608 37.247275176418576 1.5902773407317584e-15 3.975693351829396e-16 3.1805546814635168e-15 7.159880798569745 -26.258995422847896 -0.09379961255205227 -8.189682494689007 37.18105451393944 38.00108036786334 -93.1056809853686 -58.16822605189076 -136.83469198618843 6.3611093629270335e-15 -6.3611093629270335e-15 3.1805546814635168e-15
49.20000076293945 -5.600000381469727 34.0 1.9749414907820553 4.4338568802053935 -4.765374056580751 2.0096616941978827 1.6327563006799124 -0.2015275815214583 -3.1222669422490467e-07 -4.246433785907839e-07 -3.0013058136617428 90.67290946204118 -23.965903149449122 152.37036652515658 3.3067845633163916e-06 5.408840775830266e-06 100.3260428197433 179.99987357220414 -88.99108406104426 -146.15304177256758 -3.1805546814635176e-15 3.1805546814635176e-15 2.9817700138720476e-15 -95.22405050057367 -15.181677672724156 -164.54133332454356 -1.6247905681422863e-07 1.6528561419370494e-06 -88.75568740822811 3.7106931504897873e-06 -27.215869627897 -59.51321067331635 6.3611093629270335e-15 3.1805546814635168e-15 3.1805546814635168e-15 4.141638317664408 -16.38582542982768 -10.64697379374368 -113.51210008537507 65.60527664987987 54.3883156914846 77.61136917364301 -22.694549074655928 31.075448794954482 -6.896728590703373e-34 -3.975693351829396e-16 -1.987846675914698e-16 10.59340366933184 -26.286548631278283 6.181838641539633 -9.784185642233016 45.42051600609833 35.75432440063435 -98.55675210730142 -59.8275446059848 -132.60665210831374 6.3611093629270335e-15 -5.565970692561154e-15 -1.590277340731758e-15
49.29999923706055 -6.400000095367432 42.099998474121094 1.974941441612531 4.924197566848812 -8.859034663231478 1.9536528177898158 2.5604581099403734 -0.28150974913826177 -5.2221977963200993e-08 -5.303945839812065e-07 0.9389706367346684 90.70710755754322 -18.164950731366524 147.36404997290427 -2.7933107056906874e-06 -1.5558065989055977e-06 94.30925121775586 179.99943821940133 -89.89180178138128 -142.52366439674836 -2.3854160110976376e-15 3.975693351829396e-15 -1.5902773407317584e-15 -102.22392390601775 -19.76293604313221 178.51401561265064 2.2756667396067403e-07 5.284386358336164e-07 -90.2900081661926 -6.273906279147593e-07 -22.862578482634245 -60.33858873889834 0.0 0.0 0.0 6.888219728200223 -26.26446240488566 4.963665944618713 -150.75503158322852 69.55291970953267 91.75665874025576 81.94912288969685 -20.947099979639894 33.37454916945123 -2.0690185772110117e-32 1.5902773407317582e-15 1.4908850069360234e-15 11.352537983752624 -22.214762714855247 9.564184359471486 -9.087474930265426 47.67082707442773 35.79992149587134 -105.91290622072952 -58.92092625823138 -138.39310984022444 0.0 0.0 4.770832022195275e-15
49.599998474121094 -5.900000095367432 50.5 2.4681178959005923 5.412019203356449 -9.25422564394989 1.7354641930543113 1.8652796516049706 -0.21032885293196268 1.330189533155892e-07 -6.425628596965962e-07 2.197391560642008 90.53175015643068 -14.597957570542935 142.28082541673263 -2.148929909207412e-06 6.097713809567304e-06 90.80496541416359 179.99994022459205 -84.78897333059196 -143.42604251701175 1.5902773407317588e-15 1.5902773407317588e-15 -6.361109362927035e-15 -108.1160368742177 -20.32850031273785 167.38582336210894 -3.999748284334023e-06 1.65527349300241e-06 -95.37656249528514 6.210131380725415e-07 -18.523104021954975 -61.372572625869836 6.361109362927032e-15 8.827812596100317e-32 1.590277340731758e-15 5.500792122341082 -36.72943730607698 20.38936189815244 161.0900800621818 68.94917383030057 145.0334453230415 85.56557688834702 -20.72403517958104 49.39878324380446 0.0 0.0 1.689669674527493e-15 9.277293319579082 -15.667220662390537 13.603918521763346 -3.68833284260556 45.35745045111568 29.952503250526586 -108.12438714054294 -57.1853092942171 -139.33544741748022 6.3611093629270335e-15 -5.565970692561154e-15 3.1805546814635168e-15
